<svg xmlns="http://www.w3.org/2000/svg" viewBox="0 0 1160 260" role="img" aria-labelledby="title desc">
  <title id="title">HS ETF股市雷達</title><desc id="desc">專業投資雷達品牌識別</desc>
  <defs><linearGradient id="a" x1="0" y1="1" x2="1" y2="0"><stop stop-color="#f1d58a"/><stop offset=".5" stop-color="#d2b36d"/><stop offset="1" stop-color="#8e6e35"/></linearGradient><radialGradient id="b"><stop stop-color="#1b1710"/><stop offset="1" stop-color="#050403"/></radialGradient></defs>
  <g transform="translate(10 10)"><rect width="240" height="240" rx="58" fill="url(#b)" stroke="#3b3223" stroke-width="4"/><circle cx="120" cy="116" r="78" fill="none" stroke="#3a3121" stroke-width="3"/><path d="M120 116 190 50" stroke="url(#a)" stroke-width="6"/><g fill="none" stroke="url(#a)" stroke-width="11" stroke-linecap="round" stroke-linejoin="round"><path d="M51 80v77m47-77v77M51 119h47"/><path d="M183 87c-10-8-21-12-33-12-19 0-31 9-31 21 0 14 13 18 32 21 20 4 32 9 32 24 0 15-15 25-35 25-15 0-27-5-37-14"/></g><path d="m46 198 40-19 30 9 38-25 35 11" fill="none" stroke="url(#a)" stroke-width="5"/></g>
  <text x="292" y="112" fill="#f8fafc" font-family="Arial,'Noto Sans TC',sans-serif" font-size="76" font-weight="900" letter-spacing="1">HS｜ETF股市雷達</text>
  <text x="298" y="174" fill="#aaa399" font-family="Arial,sans-serif" font-size="27" font-weight="700" letter-spacing="8">ETF ENTRY INTELLIGENCE</text>
  <path d="M298 207h670" stroke="#3b3223" stroke-width="5"/><path d="M298 207h356" stroke="url(#a)" stroke-width="7" stroke-linecap="round"/><circle cx="654" cy="207" r="7" fill="#f1d58a"/>
</svg>
